<svg width="20" height="20" viewBox="0 0 20 20" fill="none" xmlns="http://www.w3.org/2000/svg">
<path fill-rule="evenodd" clip-rule="evenodd" d="M13.5049 14.3883C12.274 15.42 10.6882 16.0417 8.95821 16.0417C5.04904 16.0417 1.87488 12.8675 1.87488 8.95833C1.87488 5.04917 5.04904 1.875 8.95821 1.875C12.8674 1.875 16.0415 5.04917 16.0415 8.95833C16.0415 10.6883 15.4199 12.2742 14.3882 13.505L17.1082 16.225C17.3524 16.4683 17.3524 16.865 17.1082 17.1083C16.8649 17.3525 16.4682 17.3525 16.2249 17.1083L13.5049 14.3883ZM8.95821 3.125C12.1774 3.125 14.7915 5.73917 14.7915 8.95833C14.7915 12.1775 12.1774 14.7917 8.95821 14.7917C5.73904 14.7917 3.12488 12.1775 3.12488 8.95833C3.12488 5.73917 5.73904 3.125 8.95821 3.125Z" fill="white"/>
</svg>
