<svg width="20" height="20" viewBox="0 0 20 20" fill="none" xmlns="http://www.w3.org/2000/svg">
<path fill-rule="evenodd" clip-rule="evenodd" d="M13.505 14.3883C12.2742 15.42 10.6883 16.0417 8.95833 16.0417C5.04917 16.0417 1.875 12.8675 1.875 8.95833C1.875 5.04917 5.04917 1.875 8.95833 1.875C12.8675 1.875 16.0417 5.04917 16.0417 8.95833C16.0417 10.6883 15.42 12.2742 14.3883 13.505L17.1083 16.225C17.3525 16.4683 17.3525 16.865 17.1083 17.1083C16.865 17.3525 16.4683 17.3525 16.225 17.1083L13.505 14.3883ZM8.95833 3.125C12.1775 3.125 14.7917 5.73917 14.7917 8.95833C14.7917 12.1775 12.1775 14.7917 8.95833 14.7917C5.73917 14.7917 3.125 12.1775 3.125 8.95833C3.125 5.73917 5.73917 3.125 8.95833 3.125Z" fill="#003268"/>
</svg>
