<svg width="23" height="22" viewBox="0 0 23 22" fill="none" xmlns="http://www.w3.org/2000/svg">
<path fill-rule="evenodd" clip-rule="evenodd" d="M8.61852 13.6765L2.085 11.1554C0.769815 10.6482 -0.0641481 9.40098 0.00373263 8.04836C0.0728255 6.69574 1.02922 5.53189 2.38925 5.14857L20.3401 0.0808967C21.0686 -0.12408 21.8565 0.067 22.3922 0.580021C22.9292 1.09304 23.1304 1.84462 22.9147 2.54062C21.7934 6.16767 19.3485 14.0738 17.603 19.717C17.2018 21.0152 15.986 21.9289 14.5714 21.996C13.1568 22.0632 11.8526 21.2688 11.318 20.0158L8.61852 13.6765ZM10.404 13.262L13.0029 19.3603C13.2453 19.9301 13.8381 20.2914 14.4817 20.2601C15.1242 20.23 15.6769 19.8143 15.8587 19.2248C17.6042 13.5816 20.0491 5.67549 21.1716 2.04844C21.1971 1.96275 21.1728 1.87126 21.1074 1.80757C21.0419 1.74503 20.9449 1.72187 20.8552 1.74735L2.90442 6.81387C2.28622 6.98873 1.85106 7.51797 1.81954 8.1329C1.78924 8.74783 2.16864 9.31412 2.76623 9.54457L9.14581 12.0066L13.5205 7.82717C13.8756 7.48902 14.4514 7.48902 14.8066 7.82717C15.1617 8.16648 15.1617 8.71656 14.8066 9.05587L10.404 13.262Z" fill="white"/>
</svg>
